<svg width="1584" height="1584" viewBox="0 0 1584 1584" fill="none" xmlns="http://www.w3.org/2000/svg">
<mask id="mask0_41_2" style="mask-type:alpha" maskUnits="userSpaceOnUse" x="0" y="0" width="1584" height="1584">
<rect width="1583.17" height="1583.17" fill="url(#paint0_radial_41_2)"/>
</mask>
<g mask="url(#mask0_41_2)">
<line x1="0.5" y1="9.53893e-05" x2="0.499931" y2="1580.35" stroke="#333333"/>
<line x1="113.382" y1="0.000177405" x2="113.382" y2="1580.35" stroke="#333333"/>
<line x1="226.265" y1="0.000177405" x2="226.265" y2="1580.35" stroke="#333333"/>
<line x1="339.147" y1="0.000177405" x2="339.147" y2="1580.35" stroke="#333333"/>
<line x1="452.029" y1="0.000177405" x2="452.029" y2="1580.35" stroke="#333333"/>
<line x1="564.912" y1="0.000177405" x2="564.912" y2="1580.35" stroke="#333333"/>
<line x1="677.794" y1="0.000177405" x2="677.794" y2="1580.35" stroke="#333333"/>
<line x1="790.676" y1="0.000177405" x2="790.676" y2="1580.35" stroke="#333333"/>
<line x1="903.558" y1="0.000177405" x2="903.558" y2="1580.35" stroke="#333333"/>
<line x1="1016.44" y1="0.000177405" x2="1016.44" y2="1580.35" stroke="#333333"/>
<line x1="1129.32" y1="0.000177405" x2="1129.32" y2="1580.35" stroke="#333333"/>
<line x1="1242.2" y1="0.000177405" x2="1242.2" y2="1580.35" stroke="#333333"/>
<line x1="1355.09" y1="0.000177405" x2="1355.09" y2="1580.35" stroke="#333333"/>
<line x1="1467.97" y1="0.000177405" x2="1467.97" y2="1580.35" stroke="#333333"/>
<line x1="1580.85" y1="0.000177405" x2="1580.85" y2="1580.35" stroke="#333333"/>
<line x1="1580.35" y1="0.500076" x2="0.000122027" y2="0.499938" stroke="#333333"/>
<line x1="1580.35" y1="113.382" x2="0.000122027" y2="113.382" stroke="#333333"/>
<line x1="1580.35" y1="226.265" x2="0.000122027" y2="226.264" stroke="#333333"/>
<line x1="1580.35" y1="339.147" x2="0.000122027" y2="339.147" stroke="#333333"/>
<line x1="1580.35" y1="452.029" x2="0.000122027" y2="452.029" stroke="#333333"/>
<line x1="1580.35" y1="564.911" x2="0.000122027" y2="564.911" stroke="#333333"/>
<line x1="1580.35" y1="677.793" x2="0.000122027" y2="677.793" stroke="#333333"/>
<line x1="1580.35" y1="790.676" x2="0.000122027" y2="790.676" stroke="#333333"/>
<line x1="1580.35" y1="903.558" x2="0.000122027" y2="903.558" stroke="#333333"/>
<line x1="1580.35" y1="1016.44" x2="-4.37115e-08" y2="1016.44" stroke="#333333"/>
<line x1="1580.35" y1="1129.32" x2="-4.37115e-08" y2="1129.32" stroke="#333333"/>
<line x1="1580.35" y1="1242.2" x2="-4.37115e-08" y2="1242.2" stroke="#333333"/>
<line x1="1580.35" y1="1355.09" x2="-4.37115e-08" y2="1355.09" stroke="#333333"/>
<line x1="1580.35" y1="1467.97" x2="-4.37115e-08" y2="1467.97" stroke="#333333"/>
<line x1="1580.35" y1="1580.85" x2="-4.37115e-08" y2="1580.85" stroke="#333333"/>
</g>
<defs>
<radialGradient id="paint0_radial_41_2" cx="0" cy="0" r="1" gradientUnits="userSpaceOnUse" gradientTransform="translate(791.587 791.587) rotate(90) scale(791.587)">
<stop/>
<stop offset="1" stop-opacity="0"/>
</radialGradient>
</defs>
</svg>
