<svg width="555" height="223" viewBox="0 0 555 223" fill="none" xmlns="http://www.w3.org/2000/svg">
<path d="M48.9998 161.8L0.799805 115.8L48.9998 70H71.9998L23.5998 115.8L71.9998 161.8H48.9998Z" fill="white"/>
<path d="M103.537 119.2C103.537 105.6 106.604 93.4 112.737 82.6C118.871 71.6666 127.204 63.1333 137.737 57C148.404 50.8666 160.204 47.8 173.137 47.8C188.337 47.8 201.604 51.4666 212.937 58.8C224.271 66.1333 232.537 76.5333 237.737 90H215.937C212.071 81.6 206.471 75.1333 199.137 70.6C191.937 66.0666 183.271 63.8 173.137 63.8C163.404 63.8 154.671 66.0666 146.937 70.6C139.204 75.1333 133.137 81.6 128.737 90C124.337 98.2666 122.137 108 122.137 119.2C122.137 130.267 124.337 140 128.737 148.4C133.137 156.667 139.204 163.067 146.937 167.6C154.671 172.133 163.404 174.4 173.137 174.4C183.271 174.4 191.937 172.2 199.137 167.8C206.471 163.267 212.071 156.8 215.937 148.4H237.737C232.537 161.733 224.271 172.067 212.937 179.4C201.604 186.6 188.337 190.2 173.137 190.2C160.204 190.2 148.404 187.2 137.737 181.2C127.204 175.067 118.871 166.6 112.737 155.8C106.604 145 103.537 132.8 103.537 119.2Z" fill="white"/>
<path d="M340.43 189L283.029 125.4V189H264.829V49.6H283.029V114.2L340.629 49.6H363.629L300.43 119.4L364.229 189H340.43Z" fill="white"/>
<path d="M452.556 0.599976L397.756 223H379.756L434.356 0.599976H452.556Z" fill="white"/>
<path d="M483.073 70H506.073L554.473 115.8L506.073 161.8H483.073L531.473 115.8L483.073 70Z" fill="white"/>
</svg>

<!-- hover -->
<svg width="613" height="191" viewBox="0 0 613 191" fill="none" xmlns="http://www.w3.org/2000/svg">
<path d="M103.537 190.337L0.799805 89.7999L92.4997 0.499939H115.5L23.5998 89.7999L126.537 190.337H103.537Z" fill="white"/>
<path d="M103.537 93.1999C103.537 79.5999 106.604 67.3999 112.737 56.5999C118.871 45.6666 127.204 37.1332 137.737 30.9999C148.404 24.8666 160.204 21.7999 173.137 21.7999C188.337 21.7999 201.604 25.4665 212.937 32.7999C224.271 40.1332 232.537 50.5332 237.737 63.9999H215.937C212.071 55.5999 206.471 49.1332 199.137 44.5999C191.937 40.0666 183.271 37.7999 173.137 37.7999C163.404 37.7999 154.671 40.0666 146.937 44.5999C139.204 49.1332 133.137 55.5999 128.737 63.9999C124.337 72.2666 122.137 81.9999 122.137 93.1999C122.137 104.267 124.337 114 128.737 122.4C133.137 130.667 139.204 137.067 146.937 141.6C154.671 146.133 163.404 148.4 173.137 148.4C183.271 148.4 191.937 146.2 199.137 141.8C206.471 137.267 212.071 130.8 215.937 122.4H237.737C232.537 135.733 224.271 146.067 212.937 153.4C201.604 160.6 188.337 164.2 173.137 164.2C160.204 164.2 148.404 161.2 137.737 155.2C127.204 149.067 118.871 140.6 112.737 129.8C106.604 119 103.537 106.8 103.537 93.1999Z" fill="white"/>
<path d="M340.43 163L283.029 99.3999V163H264.829V23.5999H283.029V88.1999L340.629 23.5999H363.629L300.43 93.3999L364.229 163H340.43Z" fill="white"/>
<path d="M552 82.3784L551.8 97.8784H329.5V82.3784H552Z" fill="white"/>
<path d="M498 0.5H521L612.9 89.7999L509.963 190.337H486.963L589.9 89.7999L498 0.5Z" fill="white"/>
</svg>
