<svg width="68" height="68" viewBox="0 0 68 68" fill="none" xmlns="http://www.w3.org/2000/svg">
<g clip-path="url(#clip0_25_862)">
<path d="M51 46.75C51 51.2587 49.2089 55.5827 46.0208 58.7708C42.8327 61.9589 38.5087 63.75 34 63.75C29.4913 63.75 25.1673 61.9589 21.9792 58.7708C18.7911 55.5827 17 51.2587 17 46.75V21.25C17 16.7413 18.7911 12.4173 21.9792 9.22919C25.1673 6.04107 29.4913 4.25 34 4.25C38.5087 4.25 42.8327 6.04107 46.0208 9.22919C49.2089 12.4173 51 16.7413 51 21.25V46.75ZM34 0C28.3641 0 22.9591 2.23883 18.974 6.22398C14.9888 10.2091 12.75 15.6141 12.75 21.25V46.75C12.75 52.3859 14.9888 57.7909 18.974 61.776C22.9591 65.7612 28.3641 68 34 68C39.6359 68 45.0409 65.7612 49.026 61.776C53.0112 57.7909 55.25 52.3859 55.25 46.75V21.25C55.25 15.6141 53.0112 10.2091 49.026 6.22398C45.0409 2.23883 39.6359 0 34 0Z" fill="white" fill-opacity="0.4"/>
<path d="M35.5026 13.3724C35.1041 12.9739 34.5636 12.75 34 12.75C33.4364 12.75 32.8959 12.9739 32.4974 13.3724C32.0989 13.7709 31.875 14.3114 31.875 14.875V23.375C31.875 23.9386 32.0989 24.4791 32.4974 24.8776C32.8959 25.2761 33.4364 25.5 34 25.5C34.5636 25.5 35.1041 25.2761 35.5026 24.8776C35.9011 24.4791 36.125 23.9386 36.125 23.375V14.875C36.125 14.3114 35.9011 13.7709 35.5026 13.3724Z" fill="white" fill-opacity="0.4"/>
</g>
<defs>
<clipPath id="clip0_25_862">
<rect width="68" height="68" fill="white"/>
</clipPath>
</defs>
</svg>
