<svg width="831" height="130" viewBox="0 0 831 130" fill="none" xmlns="http://www.w3.org/2000/svg">
<path d="M795.686 88.3002C794.153 88.3002 792.686 88.1335 791.286 87.8002C789.953 87.4669 788.719 86.9669 787.586 86.3002C786.119 85.3669 785.019 84.3002 784.286 83.1002C783.619 81.8335 783.286 80.5002 783.286 79.1002C783.286 76.7669 784.086 74.3335 785.686 71.8002C787.286 69.2669 789.386 66.8669 791.986 64.6002C794.653 62.2669 797.453 60.3335 800.386 58.8002C802.119 57.8669 803.853 57.2002 805.586 56.8002C807.319 56.4002 808.853 56.2002 810.186 56.2002C812.386 56.2002 813.819 56.6335 814.486 57.5002C815.219 58.3002 815.586 59.2335 815.586 60.3002C815.586 61.5669 815.186 62.7669 814.386 63.9002C813.653 65.0335 812.553 66.1669 811.086 67.3002C808.486 69.3669 804.953 71.2335 800.486 72.9002C796.086 74.5669 791.519 75.7335 786.786 76.4002C786.453 77.0669 786.153 77.7335 785.886 78.4002C785.686 79.0669 785.586 79.7335 785.586 80.4002C785.586 81.8669 786.053 83.0669 786.986 84.0002C787.986 84.8669 789.219 85.5002 790.686 85.9002C792.219 86.2335 793.786 86.4002 795.386 86.4002C796.186 86.4002 796.986 86.3669 797.786 86.3002C798.586 86.2335 799.319 86.1335 799.986 86.0002C803.453 85.2669 806.953 84.0002 810.486 82.2002C814.086 80.4002 817.553 78.3335 820.886 76.0002C824.219 73.6669 827.219 71.3335 829.886 69.0002C830.019 68.9335 830.186 68.9002 830.386 68.9002C830.653 68.9002 830.786 68.9669 830.786 69.1002C830.786 69.3002 830.653 69.5669 830.386 69.9002C829.919 70.7002 828.953 71.7335 827.486 73.0002C826.086 74.2669 824.453 75.5669 822.586 76.9002C820.786 78.2335 819.019 79.5002 817.286 80.7002C815.553 81.8335 814.119 82.7335 812.986 83.4002C810.519 84.8002 807.753 85.9669 804.686 86.9002C801.619 87.8335 798.619 88.3002 795.686 88.3002ZM787.686 74.7002C789.219 74.3669 791.053 73.9335 793.186 73.4002C795.319 72.8002 797.519 72.1002 799.786 71.3002C802.119 70.4335 804.253 69.5002 806.186 68.5002C808.119 67.4335 809.619 66.3002 810.686 65.1002C811.753 63.9669 812.286 62.8002 812.286 61.6002C812.286 61.0669 812.086 60.6335 811.686 60.3002C811.286 59.9002 810.486 59.7002 809.286 59.7002C807.886 59.7002 806.219 60.1335 804.286 61.0002C802.353 61.8669 800.319 63.0335 798.186 64.5002C796.119 65.9669 794.153 67.6002 792.286 69.4002C790.419 71.1335 788.886 72.9002 787.686 74.7002Z" fill="white"/>
<path d="M702.552 129.4C700.819 129.4 699.119 129.167 697.452 128.7C695.719 128.3 694.319 127.567 693.252 126.5C692.119 125.434 691.552 124.034 691.552 122.3C691.552 119.967 692.519 117.467 694.452 114.8C696.319 112.134 699.186 109.6 703.052 107.2C708.052 104.2 712.986 101.667 717.852 99.6003C722.786 97.6003 727.619 95.867 732.352 94.4003C737.152 92.9336 741.819 91.5003 746.352 90.1003L748.752 89.3003C750.019 86.8336 751.019 84.267 751.752 81.6003C752.486 78.9336 752.852 76.6336 752.852 74.7003C752.852 73.0336 752.552 71.8003 751.952 71.0003C751.352 71.4003 750.952 71.8003 750.752 72.2003C749.819 73.2003 748.519 74.5336 746.852 76.2003C745.252 77.867 743.419 79.567 741.352 81.3003C739.352 83.0336 737.319 84.5003 735.252 85.7003C733.186 86.9003 731.252 87.5003 729.452 87.5003C728.586 87.5003 727.719 87.3003 726.852 86.9003C726.052 86.5003 725.352 85.867 724.752 85.0003C724.019 83.9336 723.652 82.7336 723.652 81.4003C723.652 79.467 724.252 77.367 725.452 75.1003C726.719 72.8336 728.286 70.6336 730.152 68.5003C732.086 66.367 734.119 64.5003 736.252 62.9003C738.452 61.3003 740.486 60.167 742.352 59.5003C742.952 59.3003 743.586 59.1336 744.252 59.0003C744.986 58.867 745.752 58.8003 746.552 58.8003C748.419 58.8003 750.186 59.2003 751.852 60.0003C753.586 60.8003 754.586 62.2336 754.852 64.3003V64.6003C754.852 65.067 754.719 65.467 754.452 65.8003C754.252 66.067 754.052 66.2003 753.852 66.2003C753.519 66.2003 753.352 65.9336 753.352 65.4003C753.352 65.067 753.252 64.6003 753.052 64.0003C752.919 63.3336 752.552 62.7336 751.952 62.2003C751.352 61.667 750.452 61.4003 749.252 61.4003C747.186 61.4003 744.886 62.1336 742.352 63.6003C739.886 65.0003 737.486 66.8003 735.152 69.0003C732.819 71.2003 730.852 73.467 729.252 75.8003C727.652 78.1336 726.719 80.2003 726.452 82.0003C726.386 82.267 726.352 82.5003 726.352 82.7003C726.352 82.9003 726.352 83.1003 726.352 83.3003C726.352 85.2336 727.086 86.2003 728.552 86.2003C729.619 86.2003 730.852 85.8003 732.252 85.0003C733.719 84.1336 735.086 83.2003 736.352 82.2003C737.686 81.2003 738.619 80.467 739.152 80.0003C740.952 78.467 742.819 76.867 744.752 75.2003C746.752 73.467 748.686 71.767 750.552 70.1003C750.352 70.0336 750.252 69.767 750.252 69.3003C750.252 68.8336 750.519 68.367 751.052 67.9003C751.652 67.4336 752.619 67.2003 753.952 67.2003C756.419 67.2003 757.652 69.1336 757.652 73.0003C757.652 74.8003 757.352 76.967 756.752 79.5003C756.152 81.967 755.186 84.667 753.852 87.6003C760.519 85.2003 766.452 82.6003 771.652 79.8003C776.919 77.0003 781.052 74.167 784.052 71.3003C784.452 70.9003 785.052 70.367 785.852 69.7003C786.719 68.967 787.586 68.2336 788.452 67.5003C789.319 66.767 790.052 66.2003 790.652 65.8003C791.252 65.4003 791.552 65.3003 791.552 65.5003C791.552 65.767 791.319 66.3003 790.852 67.1003C790.386 67.8336 789.319 69.0336 787.652 70.7003C783.052 75.3003 777.752 79.2003 771.752 82.4003C765.819 85.6003 759.852 88.1003 753.852 89.9003L752.552 90.2003C750.086 95.2003 747.019 100.034 743.352 104.7C739.686 109.367 735.619 113.534 731.152 117.2C726.686 120.934 722.019 123.9 717.152 126.1C712.286 128.3 707.419 129.4 702.552 129.4ZM701.952 128.1C706.619 128.034 711.186 126.867 715.652 124.6C720.119 122.4 724.319 119.5 728.252 115.9C732.252 112.367 735.886 108.467 739.152 104.2C742.419 100 745.152 95.867 747.352 91.8003C741.486 93.5336 736.119 95.2336 731.252 96.9003C726.386 98.567 721.852 100.367 717.652 102.3C713.519 104.234 709.552 106.467 705.752 109C701.686 111.667 698.719 114.2 696.852 116.6C694.986 119 694.052 121.067 694.052 122.8C694.052 124.4 694.752 125.667 696.152 126.6C697.552 127.6 699.486 128.1 701.952 128.1Z" fill="white"/>
<path d="M700.388 88.1C698.388 88.1 696.622 87.6 695.088 86.6C693.622 85.6 692.888 83.7333 692.888 81C692.955 79.6 693.188 78.1667 693.588 76.7C694.055 75.1667 694.555 73.7333 695.088 72.4C694.222 73.4 692.922 74.7333 691.188 76.4C689.455 78.0667 687.488 79.7667 685.288 81.5C683.155 83.1667 680.955 84.6 678.688 85.8C676.422 87 674.288 87.6 672.288 87.6C670.288 87.6 668.655 86.8667 667.388 85.4C666.522 84.4667 666.088 83.2333 666.088 81.7C666.088 79.7667 666.755 77.6333 668.088 75.3C669.488 72.9 671.355 70.5333 673.688 68.2C676.022 65.8 678.688 63.6 681.688 61.6C684.755 59.6 687.955 58.0333 691.288 56.9C694.888 55.6333 698.022 55 700.688 55C705.222 55 707.488 56.9333 707.488 60.8C707.488 61.1333 707.455 61.5 707.388 61.9C707.388 62.2333 707.355 62.6 707.288 63C707.155 63.8 706.888 64.4333 706.488 64.9C706.155 65.3667 705.888 65.6 705.688 65.6C705.355 65.6 705.288 65.2333 705.488 64.5C705.622 64.1667 705.688 63.8333 705.688 63.5C705.688 63.1 705.688 62.7667 705.688 62.5C705.688 61.4333 705.422 60.6 704.888 60C704.355 59.3333 703.422 59 702.088 59C700.888 59 699.388 59.2667 697.588 59.8C695.855 60.2667 693.988 60.9 691.988 61.7C689.988 62.4333 688.055 63.2667 686.188 64.2C684.388 65.1333 682.888 66.0667 681.688 67C679.622 68.4667 677.688 70.1 675.888 71.9C674.088 73.7 672.588 75.4667 671.388 77.2C670.188 78.8667 669.488 80.4 669.288 81.8C669.222 82 669.188 82.2 669.188 82.4C669.188 82.6 669.188 82.7667 669.188 82.9C669.188 84.1 669.422 84.9333 669.888 85.4C670.422 85.8667 671.088 86.1 671.888 86.1C673.088 86.1 674.455 85.7333 675.988 85C677.588 84.2667 679.055 83.4333 680.388 82.5C681.722 81.5667 682.655 80.8667 683.188 80.4C685.322 78.6 687.722 76.6333 690.388 74.5C693.055 72.3 695.422 70.2667 697.488 68.4C697.822 68.2 698.188 68.1 698.588 68.1C699.522 68.1 700.288 68.3333 700.888 68.8C701.088 69 701.188 69.2667 701.188 69.6C701.188 69.9333 701.088 70.3667 700.888 70.9C700.755 71.3667 700.555 71.9 700.288 72.5C699.155 74.8333 698.222 76.9333 697.488 78.8C696.755 80.6667 696.388 82.2333 696.388 83.5C696.388 85.5 697.488 86.5 699.688 86.5C701.355 86.5 703.822 85.9 707.088 84.7C710.622 83.3667 714.155 81.5333 717.688 79.2C721.222 76.8667 724.422 74.5 727.288 72.1C728.022 71.5 728.688 71 729.288 70.6C729.888 70.2 730.522 69.6667 731.188 69C731.322 68.9333 731.488 68.9 731.688 68.9C731.888 68.9 731.988 69 731.988 69.2C731.988 69.4 731.855 69.6667 731.588 70C731.188 70.5333 730.222 71.5333 728.688 73C727.155 74.4 725.255 76 722.988 77.8C720.722 79.5333 718.255 81.2333 715.588 82.9C712.988 84.5 710.355 85.7667 707.688 86.7C706.688 87.0333 705.522 87.3333 704.188 87.6C702.922 87.9333 701.655 88.1 700.388 88.1Z" fill="white"/>
<path d="M640.464 88.8003C637.797 88.8003 635.564 88.367 633.764 87.5003C631.697 86.5003 630.331 85.0336 629.664 83.1003C628.997 81.167 628.664 79.267 628.664 77.4003C628.664 76.4003 628.731 75.467 628.864 74.6003C628.997 73.667 629.097 72.867 629.164 72.2003C628.897 72.3336 628.564 72.4003 628.164 72.4003C627.831 72.4003 627.531 72.3336 627.264 72.2003C627.064 72.067 627.164 71.867 627.564 71.6003C627.831 71.4003 628.197 71.1003 628.664 70.7003C629.131 70.3003 629.497 69.967 629.764 69.7003C630.297 67.9003 631.097 65.6003 632.164 62.8003C633.231 59.9336 634.764 56.8336 636.764 53.5003C638.231 51.0336 640.097 48.1003 642.364 44.7003C644.631 41.3003 647.164 37.8336 649.964 34.3003C652.764 30.767 655.731 27.5003 658.864 24.5003C662.064 21.4336 665.297 18.967 668.564 17.1003C671.897 15.2336 675.197 14.3003 678.464 14.3003C679.997 14.3003 681.131 14.7336 681.864 15.6003C682.664 16.467 683.064 17.667 683.064 19.2003C683.064 21.4003 682.231 24.2336 680.564 27.7003C678.831 31.3003 676.631 34.7336 673.964 38.0003C671.364 41.2003 668.664 44.1003 665.864 46.7003C663.131 49.3003 660.664 51.567 658.464 53.5003C654.931 56.567 651.497 59.2336 648.164 61.5003C644.897 63.7003 641.997 65.5336 639.464 67.0003C636.931 68.467 634.997 69.6003 633.664 70.4003C633.397 71.3336 633.164 72.4003 632.964 73.6003C632.764 74.7336 632.664 75.867 632.664 77.0003C632.664 79.5336 633.264 81.8336 634.464 83.9003C635.664 85.967 637.831 87.0003 640.964 87.0003C643.097 87.0003 645.331 86.567 647.664 85.7003C650.064 84.8336 652.231 83.9336 654.164 83.0003C657.031 81.5336 659.797 79.967 662.464 78.3003C665.131 76.567 667.464 74.9336 669.464 73.4003C671.531 71.867 673.031 70.667 673.964 69.8003C674.231 69.5336 674.431 69.4003 674.564 69.4003C674.631 69.4003 674.664 69.467 674.664 69.6003C674.664 70.2003 674.397 70.767 673.864 71.3003C671.064 74.1003 667.997 76.767 664.664 79.3003C661.397 81.767 657.931 83.867 654.264 85.6003C651.997 86.6003 649.664 87.367 647.264 87.9003C644.931 88.5003 642.664 88.8003 640.464 88.8003ZM634.564 67.7003C635.097 67.4336 636.131 66.8336 637.664 65.9003C639.264 64.9003 641.164 63.667 643.364 62.2003C645.631 60.7336 647.964 59.1003 650.364 57.3003C652.831 55.5003 655.164 53.6336 657.364 51.7003C658.631 50.567 660.197 49.1003 662.064 47.3003C663.931 45.5003 665.864 43.5003 667.864 41.3003C669.864 39.0336 671.731 36.7003 673.464 34.3003C675.264 31.8336 676.697 29.4003 677.764 27.0003C678.897 24.5336 679.464 22.2336 679.464 20.1003C679.464 18.0336 678.631 17.0003 676.964 17.0003C675.631 17.0003 673.931 17.6003 671.864 18.8003C669.797 20.0003 667.597 21.6003 665.264 23.6003C662.997 25.5336 660.764 27.6336 658.564 29.9003C655.897 32.7003 653.331 35.8003 650.864 39.2003C648.397 42.5336 646.097 45.9336 643.964 49.4003C641.831 52.867 639.964 56.2003 638.364 59.4003C636.764 62.5336 635.497 65.3003 634.564 67.7003Z" fill="white"/>
<path d="M600.895 88.1002C597.829 88.1002 595.729 87.4335 594.595 86.1002C593.462 84.7002 592.895 83.0335 592.895 81.1002C592.895 79.7002 593.129 78.2335 593.595 76.7002C594.062 75.1669 594.562 73.7335 595.095 72.4002C594.162 73.4002 592.895 74.7335 591.295 76.4002C589.695 78.0669 587.929 79.7669 585.995 81.5002C584.062 83.1669 582.062 84.6002 579.995 85.8002C577.995 86.9335 576.129 87.5002 574.395 87.5002C573.529 87.5002 572.695 87.3002 571.895 86.9002C571.095 86.5002 570.395 85.8669 569.795 85.0002C569.062 84.0002 568.695 82.8335 568.695 81.5002C568.695 80.0335 569.095 78.5669 569.895 77.1002C570.762 75.6335 571.729 74.2335 572.795 72.9002C573.929 71.5002 574.895 70.2002 575.695 69.0002C577.162 66.8669 578.462 64.7002 579.595 62.5002C580.795 60.3002 581.395 58.4669 581.395 57.0002C581.395 56.0002 581.095 55.2669 580.495 54.8002C579.829 54.2669 579.495 53.7002 579.495 53.1002C579.495 52.8335 579.629 52.7002 579.895 52.7002C580.229 52.7002 580.629 52.8669 581.095 53.2002C581.562 53.4669 582.062 53.8335 582.595 54.3002C583.129 54.7669 583.629 55.3002 584.095 55.9002C584.495 56.3669 584.895 56.9002 585.295 57.5002C585.695 58.1002 585.895 58.8002 585.895 59.6002C585.895 60.6002 585.529 61.7002 584.795 62.9002C584.062 64.1669 583.129 65.5669 581.995 67.1002C580.929 68.6335 579.795 70.1669 578.595 71.7002C578.062 72.4335 577.229 73.6002 576.095 75.2002C574.962 76.8002 573.929 78.4669 572.995 80.2002C572.062 81.8669 571.595 83.2669 571.595 84.4002C571.595 85.6002 572.229 86.2002 573.495 86.2002C574.562 86.2002 575.795 85.8002 577.195 85.0002C578.662 84.2002 580.029 83.3002 581.295 82.3002C582.629 81.3002 583.595 80.5335 584.195 80.0002C586.329 78.2002 588.562 76.3002 590.895 74.3002C593.229 72.2335 595.462 70.2669 597.595 68.4002C597.929 68.2002 598.295 68.1002 598.695 68.1002C599.495 68.1002 600.129 68.3335 600.595 68.8002C600.795 69.0002 600.895 69.2669 600.895 69.6002C600.895 70.4002 600.529 71.5002 599.795 72.9002C599.062 74.3002 598.295 75.8002 597.495 77.4002C596.762 79.0002 596.295 80.5002 596.095 81.9002C596.029 82.1669 595.995 82.4002 595.995 82.6002C595.995 82.8002 595.995 83.0002 595.995 83.2002C595.995 84.4669 596.329 85.3335 596.995 85.8002C597.729 86.2669 598.629 86.5002 599.695 86.5002C601.029 86.5002 602.395 86.3002 603.795 85.9002C605.262 85.4335 606.429 85.0335 607.295 84.7002C610.829 83.3669 614.362 81.5335 617.895 79.2002C621.429 76.8669 624.629 74.5002 627.495 72.1002C628.229 71.5002 628.895 70.9669 629.495 70.5002C630.162 69.9669 630.829 69.3669 631.495 68.7002C631.962 68.2335 632.262 68.0002 632.395 68.0002C632.462 68.0002 632.495 68.0669 632.495 68.2002C632.495 68.3335 632.395 68.5669 632.195 68.9002C632.062 69.2335 631.929 69.5335 631.795 69.8002C631.195 70.8002 630.062 72.0669 628.395 73.6002C626.795 75.1335 624.862 76.7335 622.595 78.4002C620.395 80.0669 617.995 81.6335 615.395 83.1002C612.862 84.5669 610.329 85.7669 607.795 86.7002C605.329 87.6335 603.029 88.1002 600.895 88.1002Z" fill="white"/>
<path d="M544.172 88.7001C541.439 88.7001 539.239 88.0668 537.572 86.8001C535.905 85.4668 534.705 83.7334 533.972 81.6001C533.238 79.4001 532.872 77.0334 532.872 74.5001C532.872 72.8334 533.005 71.1668 533.272 69.5001C533.538 67.7668 533.905 66.0668 534.372 64.4001C532.905 66.2001 531.172 68.1668 529.172 70.3001C527.172 72.4334 525.072 74.5334 522.872 76.6001C520.739 78.6668 518.772 80.5001 516.972 82.1001C515.172 83.6334 513.739 84.7001 512.672 85.3001C512.939 85.7668 513.072 86.2001 513.072 86.6001C513.072 87.5334 512.538 88.0001 511.472 88.0001C511.005 88.0001 510.505 87.8334 509.972 87.5001C509.438 87.1668 509.005 86.6334 508.672 85.9001C508.405 85.3668 508.272 84.7001 508.272 83.9001C508.272 81.9001 508.938 79.4668 510.272 76.6001C511.605 73.7334 513.239 70.7334 515.172 67.6001C517.105 64.4668 518.939 61.5334 520.672 58.8001C520.205 58.4668 519.905 58.1334 519.772 57.8001C519.638 57.4668 519.572 57.2334 519.572 57.1001C519.505 56.9001 519.539 56.7334 519.672 56.6001C519.805 56.4001 520.005 56.4001 520.272 56.6001C520.472 57.0668 520.839 57.4668 521.372 57.8001C521.772 57.2001 522.705 55.7334 524.172 53.4001C525.705 51.0001 527.638 48.0668 529.972 44.6001C532.372 41.0668 535.072 37.3001 538.072 33.3001C541.139 29.3001 544.405 25.3668 547.872 21.5001C551.405 17.5668 555.005 14.0001 558.672 10.8001C562.405 7.53343 566.139 4.93343 569.872 3.0001C573.605 1.06676 577.238 0.100098 580.772 0.100098C584.105 0.100098 586.539 0.93343 588.072 2.6001C589.672 4.26676 590.472 6.46676 590.472 9.20009C590.472 13.0001 589.638 16.7001 587.972 20.3001C586.305 23.8334 584.072 27.2334 581.272 30.5001C578.538 33.7001 575.472 36.7334 572.072 39.6001C568.672 42.4668 565.205 45.1001 561.672 47.5001C558.272 49.8334 554.605 51.9001 550.672 53.7001C546.739 55.4334 542.938 56.8668 539.272 58.0001C539.605 58.2668 539.905 58.6001 540.172 59.0001C540.505 59.4001 540.872 59.8668 541.272 60.4001C541.405 60.6668 541.472 60.9001 541.472 61.1001C541.472 61.5001 541.405 61.9334 541.272 62.4001C541.138 62.8001 541.005 63.1001 540.872 63.3001C539.472 65.4334 538.405 67.6668 537.672 70.0001C536.939 72.3334 536.572 74.5668 536.572 76.7001C536.572 79.5001 537.272 81.8668 538.672 83.8001C540.072 85.7334 542.272 86.7001 545.272 86.7001C546.805 86.7001 548.505 86.4334 550.372 85.9001C552.239 85.3668 554.305 84.4668 556.572 83.2001C559.505 81.8001 562.472 80.1001 565.472 78.1001C568.472 76.1001 571.205 74.1001 573.672 72.1001C574.405 71.5001 575.072 71.0001 575.672 70.6001C576.339 70.2001 577.005 69.6668 577.672 69.0001C577.805 68.9334 577.972 68.9001 578.172 68.9001C578.372 68.9001 578.472 69.0001 578.472 69.2001C578.472 69.4001 578.339 69.6668 578.072 70.0001C577.672 70.4668 576.772 71.3334 575.372 72.6001C573.972 73.8668 572.239 75.3001 570.172 76.9001C568.172 78.5001 565.972 80.0668 563.572 81.6001C561.239 83.1334 558.872 84.4668 556.472 85.6001C555.139 86.2668 553.305 86.9334 550.972 87.6001C548.705 88.3334 546.439 88.7001 544.172 88.7001ZM524.272 58.6001C525.672 58.6001 527.772 58.2668 530.572 57.6001C533.372 56.9334 536.505 56.0001 539.972 54.8001C543.438 53.5334 546.972 52.0668 550.572 50.4001C554.172 48.6668 557.472 46.7668 560.472 44.7001C562.405 43.3668 564.572 41.7334 566.972 39.8001C569.372 37.8001 571.805 35.6001 574.272 33.2001C576.738 30.7334 579.005 28.1668 581.072 25.5001C583.139 22.7668 584.805 20.0001 586.072 17.2001C587.339 14.3334 587.972 11.5334 587.972 8.80009C587.972 4.80009 585.572 2.80009 580.772 2.80009C579.038 2.80009 577.038 3.36676 574.772 4.50009C572.505 5.56676 570.139 7.0001 567.672 8.80009C565.205 10.6001 562.738 12.6001 560.272 14.8001C557.805 16.9334 555.505 19.1001 553.372 21.3001C551.305 23.5001 549.505 25.5001 547.972 27.3001C544.972 30.9668 541.872 34.8001 538.672 38.8001C535.539 42.8001 532.672 46.5334 530.072 50.0001C527.539 53.4668 525.605 56.3334 524.272 58.6001ZM512.272 83.2001C512.872 82.8668 513.905 82.0668 515.372 80.8001C516.905 79.5334 518.639 77.9668 520.572 76.1001C522.505 74.2334 524.439 72.3001 526.372 70.3001C528.372 68.3001 530.205 66.4334 531.872 64.7001C533.539 62.9001 534.838 61.4668 535.772 60.4001C535.905 60.0668 536.039 59.7668 536.172 59.5001C536.305 59.1668 536.439 58.9001 536.572 58.7001C532.705 59.7001 529.338 60.2001 526.472 60.2001C526.005 60.2001 525.539 60.2001 525.072 60.2001C524.605 60.1334 524.172 60.0668 523.772 60.0001H523.672C522.272 62.0668 520.839 64.2668 519.372 66.6001C517.972 68.8668 516.672 71.1001 515.472 73.3001C514.338 75.4334 513.472 77.3668 512.872 79.1001C512.272 80.8334 512.072 82.2001 512.272 83.2001Z" fill="white"/>
<path d="M525.059 117.7C518.792 117.7 513.159 116.3 508.159 113.5C503.159 110.7 498.559 106.933 494.359 102.2C490.159 97.4666 486.059 92.2666 482.059 86.5999C480.325 84.1999 478.592 81.6666 476.859 78.9999C475.125 76.3332 473.392 73.6332 471.659 70.8999L467.859 74.1999C463.592 79.9332 458.892 85.1332 453.759 89.7999C448.692 94.4666 443.159 98.1666 437.159 100.9C431.225 103.633 424.725 105 417.659 105C409.259 105 402.625 102.567 397.759 97.6999C392.892 92.8999 390.425 86.1666 390.359 77.4999C390.359 74.5666 390.692 71.4332 391.359 68.0999C392.025 64.7666 393.192 61.6999 394.859 58.8999C396.525 56.0332 398.792 53.9332 401.659 52.5999C402.059 52.4666 402.359 52.3999 402.559 52.3999C402.892 52.3999 403.125 52.4999 403.259 52.6999C403.392 52.8332 403.292 52.9999 402.959 53.1999C400.759 54.3999 398.959 56.3332 397.559 58.9999C396.159 61.5999 395.125 64.4332 394.459 67.4999C393.792 70.5666 393.459 73.4666 393.459 76.1999C393.459 84.5999 395.759 90.7332 400.359 94.5999C405.025 98.4666 411.425 100.4 419.559 100.4C426.892 100.4 433.492 98.9666 439.359 96.0999C445.225 93.2999 450.492 89.4666 455.159 84.5999C459.892 79.7332 464.125 74.2999 467.859 68.2999C466.459 67.6999 465.425 66.9666 464.759 66.0999C464.092 65.1666 463.759 64.2999 463.759 63.4999C463.759 62.8332 463.992 62.2666 464.459 61.7999C464.925 61.3332 465.625 61.0999 466.559 61.0999C467.492 61.0999 468.259 61.3332 468.859 61.7999C469.459 62.2666 470.025 62.8999 470.559 63.6999C473.425 58.7666 476.059 53.6666 478.459 48.3999C480.859 43.0666 483.159 37.8332 485.359 32.6999C482.959 35.8999 480.125 39.0666 476.859 42.1999C473.659 45.3332 470.292 48.1999 466.759 50.7999C463.292 53.3332 459.925 55.3999 456.659 56.9999C453.392 58.5332 450.492 59.3666 447.959 59.4999C445.359 59.5666 443.492 59.1332 442.359 58.1999C441.292 57.1999 440.759 55.9332 440.759 54.3999C440.759 52.7332 441.259 50.8999 442.259 48.8999C443.259 46.8332 444.559 44.8666 446.159 42.9999C447.759 41.0666 449.459 39.4332 451.259 38.0999C451.792 37.6999 452.359 37.4332 452.959 37.2999C453.559 37.1666 453.725 37.1999 453.459 37.3999C452.192 38.6666 450.892 40.1666 449.559 41.8999C448.292 43.5666 447.225 45.3666 446.359 47.2999C445.492 49.1666 444.992 51.0332 444.859 52.8999C444.925 54.3666 445.292 55.4999 445.959 56.2999C446.692 57.0332 447.925 57.2666 449.659 56.9999C453.259 56.3999 456.959 54.8332 460.759 52.2999C464.625 49.7666 468.359 46.7332 471.959 43.1999C475.625 39.6666 478.925 36.0666 481.859 32.3999C482.659 31.4666 483.592 30.1999 484.659 28.5999C485.725 26.9999 486.792 25.4332 487.859 23.8999C488.992 22.2999 489.892 21.0332 490.559 20.0999C490.759 20.0332 490.925 19.9999 491.059 19.9999C491.259 19.9332 491.459 19.8999 491.659 19.8999C492.925 19.8999 493.859 20.4999 494.459 21.6999C495.059 22.8332 495.359 23.8999 495.359 24.8999C495.359 25.4332 495.259 25.8666 495.059 26.1999C491.992 32.3332 488.625 38.9666 484.959 46.0999C481.359 53.2332 477.325 60.1999 472.859 66.9999C478.325 62.2666 483.892 57.5666 489.559 52.8999C495.225 48.2332 500.925 43.7999 506.659 39.5999C512.392 35.3999 518.092 31.6666 523.759 28.3999C529.425 25.1332 534.992 22.5666 540.459 20.6999C545.925 18.8332 551.225 17.8999 556.359 17.8999C556.892 17.8999 557.425 17.8999 557.959 17.8999C558.492 17.8999 559.025 17.9332 559.559 17.9999C561.759 18.1999 563.459 18.8332 564.659 19.8999C565.925 20.9666 566.559 22.3999 566.559 24.1999C566.559 25.7332 566.059 27.4999 565.059 29.4999C564.059 31.4332 562.459 33.5666 560.259 35.8999C559.725 36.4332 558.992 36.9666 558.059 37.4999C557.192 38.0332 556.559 38.2999 556.159 38.2999C555.959 38.2999 555.859 38.1999 555.859 37.9999C555.859 37.7999 556.192 37.2666 556.859 36.3999C558.859 34.1332 560.292 31.9332 561.159 29.7999C562.092 27.6666 562.559 25.8332 562.559 24.2999C562.559 21.4999 561.492 19.9999 559.359 19.7999C558.959 19.7332 558.559 19.6999 558.159 19.6999C557.759 19.6999 557.325 19.6999 556.859 19.6999C551.992 19.6999 546.425 20.9999 540.159 23.5999C533.892 26.1332 527.125 29.6666 519.859 34.1999C512.592 38.6666 505.059 43.8999 497.259 49.8999C489.459 55.8332 481.625 62.1999 473.759 68.9999C475.425 71.6666 476.959 74.1332 478.359 76.3999C479.759 78.5999 481.259 80.8666 482.859 83.1999C486.392 88.5332 490.159 93.4332 494.159 97.8999C498.225 102.433 502.725 106.1 507.659 108.9C512.659 111.7 518.325 113.233 524.659 113.5C526.192 113.567 527.992 113.4 530.059 113C532.192 112.6 534.392 111.833 536.659 110.7C538.925 109.633 541.025 108.1 542.959 106.1C544.959 104.1 546.559 101.6 547.759 98.5999C548.492 96.6666 548.992 94.8332 549.259 93.0999C549.525 91.4332 549.592 89.8999 549.459 88.4999V88.2999C549.459 87.8332 549.559 87.5999 549.759 87.5999C550.025 87.5999 550.259 87.7999 550.459 88.1999C550.792 88.8666 550.959 89.7999 550.959 90.9999C550.959 92.2666 550.759 93.5666 550.359 94.8999C550.025 96.2999 549.659 97.5666 549.259 98.6999C546.792 104.967 543.492 109.7 539.359 112.9C535.225 116.1 530.459 117.7 525.059 117.7Z" fill="white"/>
<path d="M312.777 90.1001C312.044 90.1001 311.677 89.7001 311.677 88.9001C311.677 87.9668 312.144 86.6334 313.077 84.9001C314.011 83.1668 315.077 81.4001 316.277 79.6001C317.477 77.8001 318.477 76.3334 319.277 75.2001C319.811 74.4668 320.544 73.4668 321.477 72.2001C322.411 70.9334 323.377 69.5668 324.377 68.1001C325.377 66.5668 326.211 65.0668 326.877 63.6001C327.611 62.1334 327.977 60.8334 327.977 59.7001C327.977 58.5668 327.611 57.7334 326.877 57.2001C326.211 56.6668 325.877 56.1001 325.877 55.5001C325.877 55.2334 326.011 55.1001 326.277 55.1001C326.611 55.1001 327.011 55.2668 327.477 55.6001C327.944 55.8668 328.444 56.2334 328.977 56.7001C329.511 57.1668 330.011 57.7001 330.477 58.3001C330.877 58.7668 331.277 59.3001 331.677 59.9001C332.077 60.5001 332.277 61.2001 332.277 62.0001C332.277 63.0001 331.911 64.1001 331.177 65.3001C329.977 67.3668 328.577 69.2668 326.977 71.0001C325.377 72.7334 323.744 74.5668 322.077 76.5001C320.277 78.5668 318.644 80.5001 317.177 82.3001C315.777 84.0334 314.911 85.1334 314.577 85.6001C315.377 84.6668 316.677 83.3334 318.477 81.6001C320.344 79.8001 322.444 77.8334 324.777 75.7001C327.111 73.5668 329.444 71.5334 331.777 69.6001C334.177 67.6668 336.277 66.1001 338.077 64.9001C338.811 64.4334 339.744 64.0001 340.877 63.6001C342.011 63.1334 343.111 62.9001 344.177 62.9001C345.111 62.9001 345.877 63.2001 346.477 63.8001C347.144 64.3334 347.477 65.3334 347.477 66.8001C347.477 68.0668 347.211 69.5334 346.677 71.2001C346.211 72.8668 345.677 74.4001 345.077 75.8001C344.611 76.8668 344.244 77.9334 343.977 79.0001C343.711 80.0001 343.577 80.9334 343.577 81.8001C343.577 83.0668 343.911 84.0668 344.577 84.8001C345.311 85.5334 346.411 85.9001 347.877 85.9001C349.344 85.9001 351.211 85.5001 353.477 84.7001C357.011 83.3668 360.544 81.5334 364.077 79.2001C367.611 76.8668 370.811 74.5001 373.677 72.1001C374.411 71.5001 375.077 71.0001 375.677 70.6001C376.277 70.2001 376.911 69.6668 377.577 69.0001C377.711 68.9334 377.844 68.9001 377.977 68.9001C378.177 68.9001 378.277 69.0001 378.277 69.2001C378.277 69.4001 378.177 69.6668 377.977 70.0001C377.577 70.5334 376.611 71.5334 375.077 73.0001C373.544 74.4001 371.644 76.0001 369.377 77.8001C367.111 79.5334 364.644 81.2334 361.977 82.9001C359.377 84.5001 356.744 85.7668 354.077 86.7001C352.877 87.0334 351.611 87.3001 350.277 87.5001C349.011 87.7668 347.777 87.9001 346.577 87.9001C344.577 87.9001 342.844 87.4668 341.377 86.6001C339.911 85.7334 339.177 84.2334 339.177 82.1001C339.177 80.7668 339.511 79.2001 340.177 77.4001C340.644 76.1334 341.144 74.8668 341.677 73.6001C342.277 72.2668 342.677 70.9334 342.877 69.6001C342.944 69.3334 342.977 69.1001 342.977 68.9001C342.977 68.6334 342.977 68.4001 342.977 68.2001C342.977 66.6001 342.411 65.8001 341.277 65.8001C340.544 65.8001 339.644 66.1001 338.577 66.7001C337.577 67.2334 336.677 67.7668 335.877 68.3001C335.144 68.7668 333.944 69.7334 332.277 71.2001C330.677 72.6001 328.944 74.1668 327.077 75.9001C325.211 77.6334 323.444 79.3001 321.777 80.9001C320.377 82.2334 319.044 83.6334 317.777 85.1001C316.511 86.5001 315.444 87.6668 314.577 88.6001C313.711 89.6001 313.111 90.1001 312.777 90.1001Z" fill="white"/>
<path d="M291.013 88.1C289.013 88.1 287.247 87.6 285.713 86.6C284.247 85.6 283.513 83.7333 283.513 81C283.58 79.6 283.813 78.1667 284.213 76.7C284.68 75.1667 285.18 73.7333 285.713 72.4C284.847 73.4 283.547 74.7333 281.813 76.4C280.08 78.0667 278.113 79.7667 275.913 81.5C273.78 83.1667 271.58 84.6 269.313 85.8C267.047 87 264.913 87.6 262.913 87.6C260.913 87.6 259.28 86.8667 258.013 85.4C257.147 84.4667 256.713 83.2333 256.713 81.7C256.713 79.7667 257.38 77.6333 258.713 75.3C260.113 72.9 261.98 70.5333 264.313 68.2C266.647 65.8 269.313 63.6 272.313 61.6C275.38 59.6 278.58 58.0333 281.913 56.9C285.513 55.6333 288.647 55 291.313 55C295.847 55 298.113 56.9333 298.113 60.8C298.113 61.1333 298.08 61.5 298.013 61.9C298.013 62.2333 297.98 62.6 297.913 63C297.78 63.8 297.513 64.4333 297.113 64.9C296.78 65.3667 296.513 65.6 296.313 65.6C295.98 65.6 295.913 65.2333 296.113 64.5C296.247 64.1667 296.313 63.8333 296.313 63.5C296.313 63.1 296.313 62.7667 296.313 62.5C296.313 61.4333 296.047 60.6 295.513 60C294.98 59.3333 294.047 59 292.713 59C291.513 59 290.013 59.2667 288.213 59.8C286.48 60.2667 284.613 60.9 282.613 61.7C280.613 62.4333 278.68 63.2667 276.813 64.2C275.013 65.1333 273.513 66.0667 272.313 67C270.247 68.4667 268.313 70.1 266.513 71.9C264.713 73.7 263.213 75.4667 262.013 77.2C260.813 78.8667 260.113 80.4 259.913 81.8C259.847 82 259.813 82.2 259.813 82.4C259.813 82.6 259.813 82.7667 259.813 82.9C259.813 84.1 260.047 84.9333 260.513 85.4C261.047 85.8667 261.713 86.1 262.513 86.1C263.713 86.1 265.08 85.7333 266.613 85C268.213 84.2667 269.68 83.4333 271.013 82.5C272.347 81.5667 273.28 80.8667 273.813 80.4C275.947 78.6 278.347 76.6333 281.013 74.5C283.68 72.3 286.047 70.2667 288.113 68.4C288.447 68.2 288.813 68.1 289.213 68.1C290.147 68.1 290.913 68.3333 291.513 68.8C291.713 69 291.813 69.2667 291.813 69.6C291.813 69.9333 291.713 70.3667 291.513 70.9C291.38 71.3667 291.18 71.9 290.913 72.5C289.78 74.8333 288.847 76.9333 288.113 78.8C287.38 80.6667 287.013 82.2333 287.013 83.5C287.013 85.5 288.113 86.5 290.313 86.5C291.98 86.5 294.447 85.9 297.713 84.7C301.247 83.3667 304.78 81.5333 308.313 79.2C311.847 76.8667 315.047 74.5 317.913 72.1C318.647 71.5 319.313 71 319.913 70.6C320.513 70.2 321.147 69.6667 321.813 69C321.947 68.9333 322.113 68.9 322.313 68.9C322.513 68.9 322.613 69 322.613 69.2C322.613 69.4 322.48 69.6667 322.213 70C321.813 70.5333 320.847 71.5333 319.313 73C317.78 74.4 315.88 76 313.613 77.8C311.347 79.5333 308.88 81.2333 306.213 82.9C303.613 84.5 300.98 85.7667 298.313 86.7C297.313 87.0333 296.147 87.3333 294.813 87.6C293.547 87.9333 292.28 88.1 291.013 88.1Z" fill="white"/>
<path d="M229.413 89.3003C227.147 89.3003 225.147 88.867 223.413 88.0003C221.747 87.1336 220.913 85.467 220.913 83.0003C220.913 81.2003 221.613 79.1003 223.013 76.7003C224.413 74.3003 226.28 71.767 228.613 69.1003C230.947 66.4336 233.447 63.767 236.113 61.1003C238.847 58.4336 241.513 55.9003 244.113 53.5003C243.313 53.367 242.547 53.2003 241.813 53.0003C241.08 52.8003 240.38 52.6336 239.713 52.5003C236.647 51.767 233.013 50.9003 228.813 49.9003C224.68 48.8336 220.213 47.8003 215.413 46.8003C210.613 45.7336 205.713 44.867 200.713 44.2003C195.647 43.467 190.713 43.1003 185.913 43.1003C179.647 43.1003 173.913 43.9336 168.713 45.6003C163.513 47.2003 159.547 50.1336 156.813 54.4003C156.48 55.0003 156.113 55.3003 155.713 55.3003C155.447 55.3003 155.313 55.0336 155.313 54.5003C155.313 53.9003 155.513 53.3003 155.913 52.7003C158.047 49.567 160.713 47.1003 163.913 45.3003C167.113 43.5003 170.68 42.2336 174.613 41.5003C178.547 40.7003 182.647 40.3003 186.913 40.3003C191.247 40.3003 195.647 40.6003 200.113 41.2003C204.513 41.8003 208.747 42.5336 212.813 43.4003C216.947 44.267 220.713 45.167 224.113 46.1003C227.58 46.967 230.513 47.7003 232.913 48.3003C234.513 48.767 236.48 49.267 238.813 49.8003C241.213 50.3336 243.747 50.867 246.413 51.4003L252.913 45.7003C252.713 45.5003 252.613 45.2336 252.613 44.9003C252.613 44.2336 253.013 43.5003 253.813 42.7003C254.613 41.9003 255.647 41.2336 256.913 40.7003C257.38 40.5003 258.047 40.5003 258.913 40.7003C259.847 40.9003 260.713 41.2003 261.513 41.6003C262.313 42.0003 262.713 42.4336 262.713 42.9003C262.713 43.3003 262.247 43.8336 261.313 44.5003C260.447 45.1003 259.847 45.5003 259.513 45.7003C258.713 46.167 257.58 46.967 256.113 48.1003C254.647 49.2336 252.947 50.567 251.013 52.1003C253.48 52.5003 255.98 52.8336 258.513 53.1003C261.113 53.3003 263.58 53.4003 265.913 53.4003C269.447 53.4003 272.647 53.067 275.513 52.4003C278.38 51.667 280.58 50.467 282.113 48.8003C283.713 47.067 284.313 44.7003 283.913 41.7003V41.6003C283.913 41.267 284.08 41.1003 284.413 41.1003C284.747 41.1003 284.98 41.267 285.113 41.6003C285.18 42.0003 285.213 42.4003 285.213 42.8003C285.28 43.2003 285.313 43.567 285.313 43.9003C285.313 47.0336 284.413 49.5336 282.613 51.4003C280.813 53.2003 278.447 54.467 275.513 55.2003C272.58 55.9336 269.347 56.3003 265.813 56.3003C262.947 56.3003 259.98 56.1003 256.913 55.7003C253.913 55.3003 251.047 54.867 248.313 54.4003C245.647 56.667 242.913 59.1336 240.113 61.8003C237.313 64.4003 234.713 67.0336 232.313 69.7003C229.913 72.3003 227.947 74.7336 226.413 77.0003C224.947 79.267 224.213 81.1336 224.213 82.6003C224.213 84.067 224.847 85.167 226.113 85.9003C227.38 86.6336 229.047 87.0003 231.113 87.0003C234.38 87.0003 238.113 86.2336 242.313 84.7003C242.78 84.567 243.213 84.4003 243.613 84.2003C244.08 84.0003 244.547 83.8003 245.013 83.6003C248.147 82.2003 251.213 80.467 254.213 78.4003C257.28 76.267 260.047 74.167 262.513 72.1003C263.247 71.5003 263.913 71.0003 264.513 70.6003C265.113 70.2003 265.747 69.667 266.413 69.0003C266.547 68.9336 266.68 68.9003 266.813 68.9003C267.013 68.9003 267.113 69.0003 267.113 69.2003C267.113 69.4003 267.013 69.667 266.813 70.0003C266.413 70.5336 265.447 71.5336 263.913 73.0003C262.38 74.4003 260.48 76.0003 258.213 77.8003C255.947 79.5336 253.48 81.2336 250.813 82.9003C248.213 84.5003 245.58 85.767 242.913 86.7003C241.58 87.167 239.613 87.7003 237.013 88.3003C234.48 88.967 231.947 89.3003 229.413 89.3003Z" fill="white"/>
<path d="M193.928 88.3002C192.395 88.3002 190.928 88.1335 189.528 87.8002C188.195 87.4669 186.961 86.9669 185.828 86.3002C184.361 85.3669 183.261 84.3002 182.528 83.1002C181.861 81.8335 181.528 80.5002 181.528 79.1002C181.528 76.7669 182.328 74.3335 183.928 71.8002C185.528 69.2669 187.628 66.8669 190.228 64.6002C192.895 62.2669 195.695 60.3335 198.628 58.8002C200.361 57.8669 202.095 57.2002 203.828 56.8002C205.561 56.4002 207.095 56.2002 208.428 56.2002C210.628 56.2002 212.061 56.6335 212.728 57.5002C213.461 58.3002 213.828 59.2335 213.828 60.3002C213.828 61.5669 213.428 62.7669 212.628 63.9002C211.895 65.0335 210.795 66.1669 209.328 67.3002C206.728 69.3669 203.195 71.2335 198.728 72.9002C194.328 74.5669 189.761 75.7335 185.028 76.4002C184.695 77.0669 184.395 77.7335 184.128 78.4002C183.928 79.0669 183.828 79.7335 183.828 80.4002C183.828 81.8669 184.295 83.0669 185.228 84.0002C186.228 84.8669 187.461 85.5002 188.928 85.9002C190.461 86.2335 192.028 86.4002 193.628 86.4002C194.428 86.4002 195.228 86.3669 196.028 86.3002C196.828 86.2335 197.561 86.1335 198.228 86.0002C201.695 85.2669 205.195 84.0002 208.728 82.2002C212.328 80.4002 215.795 78.3335 219.128 76.0002C222.461 73.6669 225.461 71.3335 228.128 69.0002C228.261 68.9335 228.428 68.9002 228.628 68.9002C228.895 68.9002 229.028 68.9669 229.028 69.1002C229.028 69.3002 228.895 69.5669 228.628 69.9002C228.161 70.7002 227.195 71.7335 225.728 73.0002C224.328 74.2669 222.695 75.5669 220.828 76.9002C219.028 78.2335 217.261 79.5002 215.528 80.7002C213.795 81.8335 212.361 82.7335 211.228 83.4002C208.761 84.8002 205.995 85.9669 202.928 86.9002C199.861 87.8335 196.861 88.3002 193.928 88.3002ZM185.928 74.7002C187.461 74.3669 189.295 73.9335 191.428 73.4002C193.561 72.8002 195.761 72.1002 198.028 71.3002C200.361 70.4335 202.495 69.5002 204.428 68.5002C206.361 67.4335 207.861 66.3002 208.928 65.1002C209.995 63.9669 210.528 62.8002 210.528 61.6002C210.528 61.0669 210.328 60.6335 209.928 60.3002C209.528 59.9002 208.728 59.7002 207.528 59.7002C206.128 59.7002 204.461 60.1335 202.528 61.0002C200.595 61.8669 198.561 63.0335 196.428 64.5002C194.361 65.9669 192.395 67.6002 190.528 69.4002C188.661 71.1335 187.128 72.9002 185.928 74.7002Z" fill="white"/>
<path d="M155.305 88.7001C152.571 88.7001 150.371 88.0668 148.705 86.8001C147.038 85.4668 145.838 83.7334 145.105 81.6001C144.371 79.4001 144.005 77.0334 144.005 74.5001C144.005 72.8334 144.138 71.1668 144.405 69.5001C144.671 67.7668 145.038 66.0668 145.505 64.4001C144.038 66.2001 142.305 68.1668 140.305 70.3001C138.305 72.4334 136.205 74.5334 134.005 76.6001C131.871 78.6668 129.905 80.5001 128.105 82.1001C126.305 83.6334 124.871 84.7001 123.805 85.3001C124.071 85.7668 124.205 86.2001 124.205 86.6001C124.205 87.5334 123.671 88.0001 122.605 88.0001C122.138 88.0001 121.638 87.8334 121.105 87.5001C120.571 87.1668 120.138 86.6334 119.805 85.9001C119.538 85.3668 119.405 84.7001 119.405 83.9001C119.405 81.9001 120.071 79.4668 121.405 76.6001C122.738 73.7334 124.371 70.7334 126.305 67.6001C128.238 64.4668 130.071 61.5334 131.805 58.8001C131.338 58.4668 131.038 58.1334 130.905 57.8001C130.771 57.4668 130.705 57.2334 130.705 57.1001C130.638 56.9001 130.671 56.7334 130.805 56.6001C130.938 56.4001 131.138 56.4001 131.405 56.6001C131.605 57.0668 131.971 57.4668 132.505 57.8001C132.905 57.2001 133.838 55.7334 135.305 53.4001C136.838 51.0001 138.771 48.0668 141.105 44.6001C143.505 41.0668 146.205 37.3001 149.205 33.3001C152.271 29.3001 155.538 25.3668 159.005 21.5001C162.538 17.5668 166.138 14.0001 169.805 10.8001C173.538 7.53343 177.271 4.93343 181.005 3.0001C184.738 1.06676 188.371 0.100098 191.905 0.100098C195.238 0.100098 197.671 0.93343 199.205 2.6001C200.805 4.26676 201.605 6.46676 201.605 9.20009C201.605 13.0001 200.771 16.7001 199.105 20.3001C197.438 23.8334 195.205 27.2334 192.405 30.5001C189.671 33.7001 186.605 36.7334 183.205 39.6001C179.805 42.4668 176.338 45.1001 172.805 47.5001C169.405 49.8334 165.738 51.9001 161.805 53.7001C157.871 55.4334 154.071 56.8668 150.405 58.0001C150.738 58.2668 151.038 58.6001 151.305 59.0001C151.638 59.4001 152.005 59.8668 152.405 60.4001C152.538 60.6668 152.605 60.9001 152.605 61.1001C152.605 61.5001 152.538 61.9334 152.405 62.4001C152.271 62.8001 152.138 63.1001 152.005 63.3001C150.605 65.4334 149.538 67.6668 148.805 70.0001C148.071 72.3334 147.705 74.5668 147.705 76.7001C147.705 79.5001 148.405 81.8668 149.805 83.8001C151.205 85.7334 153.405 86.7001 156.405 86.7001C157.938 86.7001 159.638 86.4334 161.505 85.9001C163.371 85.3668 165.438 84.4668 167.705 83.2001C170.638 81.8001 173.605 80.1001 176.605 78.1001C179.605 76.1001 182.338 74.1001 184.805 72.1001C185.538 71.5001 186.205 71.0001 186.805 70.6001C187.471 70.2001 188.138 69.6668 188.805 69.0001C188.938 68.9334 189.105 68.9001 189.305 68.9001C189.505 68.9001 189.605 69.0001 189.605 69.2001C189.605 69.4001 189.471 69.6668 189.205 70.0001C188.805 70.4668 187.905 71.3334 186.505 72.6001C185.105 73.8668 183.371 75.3001 181.305 76.9001C179.305 78.5001 177.105 80.0668 174.705 81.6001C172.371 83.1334 170.005 84.4668 167.605 85.6001C166.271 86.2668 164.438 86.9334 162.105 87.6001C159.838 88.3334 157.571 88.7001 155.305 88.7001ZM135.405 58.6001C136.805 58.6001 138.905 58.2668 141.705 57.6001C144.505 56.9334 147.638 56.0001 151.105 54.8001C154.571 53.5334 158.105 52.0668 161.705 50.4001C165.305 48.6668 168.605 46.7668 171.605 44.7001C173.538 43.3668 175.705 41.7334 178.105 39.8001C180.505 37.8001 182.938 35.6001 185.405 33.2001C187.871 30.7334 190.138 28.1668 192.205 25.5001C194.271 22.7668 195.938 20.0001 197.205 17.2001C198.471 14.3334 199.105 11.5334 199.105 8.80009C199.105 4.80009 196.705 2.80009 191.905 2.80009C190.171 2.80009 188.171 3.36676 185.905 4.50009C183.638 5.56676 181.271 7.0001 178.805 8.80009C176.338 10.6001 173.871 12.6001 171.405 14.8001C168.938 16.9334 166.638 19.1001 164.505 21.3001C162.438 23.5001 160.638 25.5001 159.105 27.3001C156.105 30.9668 153.005 34.8001 149.805 38.8001C146.671 42.8001 143.805 46.5334 141.205 50.0001C138.671 53.4668 136.738 56.3334 135.405 58.6001ZM123.405 83.2001C124.005 82.8668 125.038 82.0668 126.505 80.8001C128.038 79.5334 129.771 77.9668 131.705 76.1001C133.638 74.2334 135.571 72.3001 137.505 70.3001C139.505 68.3001 141.338 66.4334 143.005 64.7001C144.671 62.9001 145.971 61.4668 146.905 60.4001C147.038 60.0668 147.171 59.7668 147.305 59.5001C147.438 59.1668 147.571 58.9001 147.705 58.7001C143.838 59.7001 140.471 60.2001 137.605 60.2001C137.138 60.2001 136.671 60.2001 136.205 60.2001C135.738 60.1334 135.305 60.0668 134.905 60.0001H134.805C133.405 62.0668 131.971 64.2668 130.505 66.6001C129.105 68.8668 127.805 71.1001 126.605 73.3001C125.471 75.4334 124.605 77.3668 124.005 79.1001C123.405 80.8334 123.205 82.2001 123.405 83.2001Z" fill="white"/>
<path d="M50.5289 97.5001C42.0623 97.5001 35.1623 96.5001 29.8289 94.5001C24.4956 92.5668 20.5623 89.9334 18.0289 86.6001C15.4956 83.2001 14.2289 79.4001 14.2289 75.2001C14.2289 70.2001 15.5623 65.6334 18.2289 61.5001C20.8956 57.3001 24.4623 53.5668 28.9289 50.3001C33.4623 46.9668 38.4956 44.1334 44.0289 41.8001C49.5623 39.4001 55.1956 37.5334 60.9289 36.2001C59.2623 35.4668 57.5956 34.7668 55.9289 34.1001C54.2623 33.3668 52.6623 32.6668 51.1289 32.0001C48.1956 30.7334 44.8623 29.5001 41.1289 28.3001C37.4623 27.1001 33.6956 26.1001 29.8289 25.3001C25.9623 24.5001 22.2956 24.1001 18.8289 24.1001C16.1623 24.1001 13.5956 24.5334 11.1289 25.4001C8.72892 26.2668 6.72892 27.4668 5.12892 29.0001C3.59558 30.5334 2.82892 32.3334 2.82892 34.4001C2.82892 36.4001 3.62892 38.4334 5.22892 40.5001C5.89559 41.3001 6.86225 42.3334 8.12892 43.6001C9.46225 44.8001 10.8623 45.9334 12.3289 47.0001C13.8623 48.0668 15.1623 48.8334 16.2289 49.3001C16.8956 49.5668 17.2289 49.8668 17.2289 50.2001C17.2289 50.4668 16.9289 50.5001 16.3289 50.3001C13.8623 49.7668 11.3956 48.7334 8.92892 47.2001C6.46225 45.6001 4.39559 43.6334 2.72892 41.3001C1.12892 38.9001 0.328918 36.3334 0.328918 33.6001C0.328918 32.8668 0.395585 32.1334 0.528918 31.4001C0.662252 30.6668 0.862251 29.9334 1.12892 29.2001C2.26225 26.0668 4.22892 23.8668 7.02892 22.6001C9.82892 21.2668 13.0623 20.6001 16.7289 20.6001C20.5956 20.6001 24.7289 21.1334 29.1289 22.2001C33.5289 23.2668 37.8289 24.6001 42.0289 26.2001C46.2956 27.7334 50.0956 29.3001 53.4289 30.9001C54.8956 31.5668 56.5289 32.3001 58.3289 33.1001C60.1956 33.9001 62.1623 34.7334 64.2289 35.6001C70.2289 34.4668 75.7956 33.9001 80.9289 33.9001C81.5956 33.9001 82.2623 33.9001 82.9289 33.9001C83.5956 33.9001 84.2289 33.9334 84.8289 34.0001C90.5623 34.4001 95.5956 35.3668 99.9289 36.9001C104.262 38.3668 107.029 40.3334 108.229 42.8001C108.429 43.2001 108.529 43.6334 108.529 44.1001C108.529 45.2334 107.929 46.4001 106.729 47.6001C105.596 48.7334 103.662 49.3001 100.929 49.3001C99.9956 49.3001 98.8623 49.2001 97.5289 49.0001C93.1289 48.2001 88.1289 46.8001 82.5289 44.8001C76.9289 42.7334 71.3623 40.5668 65.8289 38.3001C60.2956 39.3668 54.7956 40.9668 49.3289 43.1001C43.9289 45.2334 38.9956 47.8668 34.5289 51.0001C30.1289 54.0668 26.5956 57.6001 23.9289 61.6001C21.3289 65.6001 20.0289 70.0001 20.0289 74.8001C20.0289 78.8001 21.5623 82.2668 24.6289 85.2001C27.6956 88.1334 31.8956 90.3668 37.2289 91.9001C42.5623 93.4334 48.5956 94.1668 55.3289 94.1001C60.6623 93.9001 66.3623 93.2668 72.4289 92.2001C78.4956 91.2001 84.6289 89.7001 90.8289 87.7001C97.0289 85.7668 102.996 83.2668 108.729 80.2001C114.529 77.0668 119.796 73.2668 124.529 68.8001C124.662 68.6668 124.762 68.6001 124.829 68.6001C124.962 68.6001 125.029 68.7001 125.029 68.9001C125.029 69.1001 124.962 69.3001 124.829 69.5001C121.762 73.0334 118.562 76.0668 115.229 78.6001C111.896 81.0668 107.929 83.4001 103.329 85.6001C97.9289 88.1334 92.3956 90.2334 86.7289 91.9001C81.0623 93.6334 75.4956 94.9334 70.0289 95.8001C64.5623 96.7334 59.4289 97.2668 54.6289 97.4001C53.9623 97.4668 53.2623 97.5001 52.5289 97.5001C51.8623 97.5001 51.1956 97.5001 50.5289 97.5001ZM102.629 47.5001C103.962 47.5001 104.862 47.1668 105.329 46.5001C105.862 45.8334 106.129 45.1668 106.129 44.5001C106.129 43.1668 105.362 42.0001 103.829 41.0001C102.362 40.0001 100.429 39.2001 98.0289 38.6001C95.6289 37.9334 93.0289 37.4334 90.2289 37.1001C87.4956 36.7668 84.8956 36.6001 82.4289 36.6001C80.4289 36.6001 78.3623 36.7001 76.2289 36.9001C74.0956 37.0334 71.8956 37.2668 69.6289 37.6001C73.3623 39.0001 77.1623 40.3668 81.0289 41.7001C84.8956 43.0334 88.5289 44.2001 91.9289 45.2001C95.3956 46.1334 98.3623 46.8334 100.829 47.3001C101.162 47.3668 101.462 47.4334 101.729 47.5001C102.062 47.5001 102.362 47.5001 102.629 47.5001Z" fill="white"/>
</svg>
